# This file uses centimeters as units for non-parametric coordinates.

mtllib perf102.mtl
g default
v -1.000000 -2.804917 15.000000
v -1.000000 -2.804917 5.000000
v -1.757479 -2.418962 5.000000
v -1.757479 -2.418962 15.000000
v -0.923961 -2.843660 5.000000
v -0.923961 -2.843660 -5.000000
v -1.000000 -2.804917 -5.000000
v -2.990000 0.000000 -5.000000
v -2.843660 -0.923961 -5.000000
v -2.843660 -0.923961 -15.000000
v -2.990000 0.000000 -15.000000
v -2.418962 -1.757479 -5.000000
v -2.418962 -1.757479 -15.000000
v -1.757479 -2.418962 -5.000000
v -1.757479 -2.418962 -15.000000
v 0.000000 -2.990001 14.999998
v -0.923961 -2.843660 15.000000
v -0.923961 -2.843660 25.000000
v 0.000000 -2.990001 25.000000
v -1.000000 -2.804917 -15.000000
v -0.923961 -2.843660 -15.000000
v -0.923961 -2.843660 -25.000000
v -1.000000 -2.804917 -25.000000
v -2.418962 -1.757479 15.000000
v -2.418962 -1.757479 5.000000
v -2.843660 -0.923961 15.000000
v -2.843660 -0.923961 5.000000
v -2.990000 0.000000 15.000000
v -2.990000 0.000000 5.000000
v -0.000000 -2.990001 -15.000000
v -0.000000 -2.990001 -25.000000
v -0.000000 -2.990001 4.999998
v -0.000000 -2.990001 -5.000000
v -1.000000 -2.804917 25.000000
v 1.000000 -2.804917 -15.000000
v 1.000000 -2.804917 -5.000000
v 1.757479 -2.418962 -5.000000
v 1.757479 -2.418962 -15.000000
v 0.923961 -2.843660 -5.000000
v 0.923961 -2.843660 5.000000
v 1.000000 -2.804917 5.000000
v 2.990000 0.000000 5.000000
v 2.843660 -0.923961 5.000000
v 2.843660 -0.923961 15.000000
v 2.990000 0.000000 15.000000
v 2.418962 -1.757479 5.000000
v 2.418962 -1.757479 15.000000
v 1.757479 -2.418962 5.000000
v 1.757479 -2.418962 15.000000
v 0.000000 -2.990001 -14.999998
v 0.923961 -2.843660 -15.000000
v 0.923961 -2.843660 -25.000000
v 0.000000 -2.990001 -25.000000
v 1.000000 -2.804917 15.000000
v 0.923961 -2.843660 15.000000
v 0.923961 -2.843660 25.000000
v 1.000000 -2.804917 25.000000
v 2.418962 -1.757479 -15.000000
v 2.418962 -1.757479 -5.000000
v 2.843660 -0.923961 -15.000000
v 2.843660 -0.923961 -5.000000
v 2.990000 0.000000 -15.000000
v 2.990000 0.000000 -5.000000
v -0.000000 -2.990001 15.000000
v -0.000000 -2.990001 25.000000
v 0.000000 -2.990001 -4.999998
v -0.000000 -2.990001 5.000000
v 1.000000 -2.804917 -25.000000
vt 0.804561 0.950000
vt 0.804561 0.900000
vt 0.850000 0.900000
vt 0.850000 0.950000
vt 0.800000 0.900000
vt 0.800000 0.850000
vt 0.804561 0.850000
vt 1.000000 0.850000
vt 0.950000 0.850000
vt 0.950000 0.800000
vt 1.000000 0.800000
vt 0.950000 0.850000
vt 0.900000 0.850000
vt 0.900000 0.800000
vt 0.950000 0.800000
vt 0.900000 0.850000
vt 0.850000 0.850000
vt 0.850000 0.800000
vt 0.900000 0.800000
vt 0.750000 0.950000
vt 0.800000 0.950000
vt 0.800000 1.000000
vt 0.750000 1.000000
vt 0.804561 0.800000
vt 0.800000 0.800000
vt 0.800000 0.750000
vt 0.804561 0.750000
vt 0.900000 0.950000
vt 0.850000 0.950000
vt 0.850000 0.900000
vt 0.900000 0.900000
vt 0.950000 0.950000
vt 0.900000 0.950000
vt 0.900000 0.900000
vt 0.950000 0.900000
vt 1.000000 0.950000
vt 0.950000 0.950000
vt 0.950000 0.900000
vt 1.000000 0.900000
vt 0.800000 0.800000
vt 0.750000 0.800000
vt 0.750000 0.750000
vt 0.804561 0.850000
vt 0.850000 0.800000
vt 0.850000 0.850000
vt 0.800000 0.900000
vt 0.750000 0.900000
vt 0.750000 0.850000
vt 0.800000 0.850000
vt 0.804561 1.000000
vt 0.800000 0.950000
vt 0.804561 0.950000
vt 0.804561 0.900000
vt 0.850000 0.900000
vt 0.850000 0.950000
vt 0.800000 0.900000
vt 0.800000 0.850000
vt 0.804561 0.850000
vt 1.000000 0.850000
vt 0.950000 0.850000
vt 0.950000 0.800000
vt 1.000000 0.800000
vt 0.950000 0.850000
vt 0.900000 0.850000
vt 0.900000 0.800000
vt 0.950000 0.800000
vt 0.900000 0.850000
vt 0.850000 0.850000
vt 0.850000 0.800000
vt 0.900000 0.800000
vt 0.750000 0.950000
vt 0.800000 0.950000
vt 0.800000 1.000000
vt 0.750000 1.000000
vt 0.804561 0.800000
vt 0.800000 0.800000
vt 0.800000 0.750000
vt 0.804561 0.750000
vt 0.900000 0.950000
vt 0.850000 0.950000
vt 0.850000 0.900000
vt 0.900000 0.900000
vt 0.950000 0.950000
vt 0.900000 0.950000
vt 0.900000 0.900000
vt 0.950000 0.900000
vt 1.000000 0.950000
vt 0.950000 0.950000
vt 0.950000 0.900000
vt 1.000000 0.900000
vt 0.800000 0.800000
vt 0.750000 0.800000
vt 0.750000 0.750000
vt 0.804561 0.850000
vt 0.850000 0.800000
vt 0.850000 0.850000
vt 0.800000 0.900000
vt 0.750000 0.900000
vt 0.750000 0.850000
vt 0.800000 0.850000
vt 0.804561 1.000000
vt 0.800000 0.950000
vn -0.453991 -0.891007 0.000000
vn -0.593892 -0.804545 0.000000
vn -0.593892 -0.804545 0.000000
vn -0.453991 -0.891007 0.000000
vn -0.453990 -0.891007 -0.000000
vn -0.453990 -0.891007 -0.000000
vn -0.181993 -0.983300 -0.000000
vn -0.181994 -0.983300 -0.000000
vn -0.987689 -0.156433 0.000000
vn -0.987689 -0.156433 0.000000
vn -0.951057 -0.309016 0.000000
vn -0.951057 -0.309016 0.000000
vn -0.809017 -0.587785 0.000000
vn -0.809017 -0.587785 0.000000
vn -0.593892 -0.804545 0.000000
vn -0.593892 -0.804545 0.000000
vn -0.156434 -0.987688 0.000000
vn -0.156434 -0.987688 0.000000
vn -0.181994 -0.983300 -0.000000
vn -0.181993 -0.983300 -0.000000
vn -0.453988 -0.891008 -0.000000
vn -0.453988 -0.891008 -0.000000
vn -0.181993 -0.983300 -0.000000
vn -0.181993 -0.983300 -0.000000
vn -0.809017 -0.587785 0.000000
vn -0.809017 -0.587785 0.000000
vn -0.951057 -0.309016 0.000000
vn -0.951057 -0.309016 0.000000
vn -0.987689 -0.156433 0.000000
vn -0.987689 -0.156433 0.000000
vn -0.156434 -0.987688 0.000000
vn -0.156434 -0.987688 0.000000
vn -0.453991 -0.891006 0.000000
vn -0.453991 -0.891006 0.000000
vn -0.156434 -0.987688 0.000000
vn -0.156434 -0.987688 0.000000
vn -0.453990 -0.891007 -0.000000
vn -0.453990 -0.891007 -0.000000
vn 0.453991 -0.891007 0.000000
vn 0.593892 -0.804545 0.000000
vn 0.593892 -0.804545 0.000000
vn 0.453991 -0.891007 0.000000
vn 0.453990 -0.891007 0.000000
vn 0.453990 -0.891007 0.000000
vn 0.181993 -0.983300 0.000000
vn 0.181994 -0.983300 0.000000
vn 0.987689 -0.156433 0.000000
vn 0.987689 -0.156433 0.000000
vn 0.951057 -0.309016 0.000000
vn 0.951057 -0.309016 0.000000
vn 0.809017 -0.587785 0.000000
vn 0.809017 -0.587785 0.000000
vn 0.593892 -0.804545 0.000000
vn 0.593892 -0.804545 0.000000
vn 0.156434 -0.987688 0.000000
vn 0.156434 -0.987688 0.000000
vn 0.181994 -0.983300 0.000000
vn 0.181993 -0.983300 0.000000
vn 0.453988 -0.891008 0.000000
vn 0.453988 -0.891008 0.000000
vn 0.181993 -0.983300 0.000000
vn 0.181993 -0.983300 0.000000
vn 0.809017 -0.587785 0.000000
vn 0.809017 -0.587785 0.000000
vn 0.951057 -0.309016 0.000000
vn 0.951057 -0.309016 0.000000
vn 0.987689 -0.156433 0.000000
vn 0.987689 -0.156433 0.000000
vn 0.156434 -0.987688 0.000000
vn 0.156434 -0.987688 0.000000
vn 0.453991 -0.891006 0.000000
vn 0.453991 -0.891006 0.000000
vn 0.156434 -0.987688 0.000000
vn 0.156434 -0.987688 0.000000
vn 0.453990 -0.891007 0.000000
vn 0.453990 -0.891007 0.000000
s 1
g polySurface10
usemtl initialShadingGroup
f 1/1/1 4/4/2 3/3/3 2/2/4
s 2
f 2/2/5 7/7/6 6/6/7 5/5/8
s 3
f 8/8/9 11/11/10 10/10/11 9/9/12
f 9/12/12 10/15/11 13/14/13 12/13/14
f 12/16/14 13/19/13 15/18/15 14/17/16
s 4
f 16/20/17 19/23/18 18/22/19 17/21/20
s 5
f 20/24/21 23/27/22 22/26/23 21/25/24
s 1
f 24/28/25 25/31/26 3/30/3 4/29/2
f 26/32/27 27/35/28 25/34/26 24/33/25
f 28/36/29 29/39/30 27/38/28 26/37/27
s 5
f 21/40/24 22/26/23 31/42/31 30/41/32
s 3
f 7/43/33 14/45/16 15/44/15 20/24/34
s 2
f 5/46/8 6/49/7 33/48/35 32/47/36
s 4
f 1/1/37 17/51/20 18/22/19 34/50/38
s 6
f 35/52/39 38/55/40 37/54/41 36/53/42
s 7
f 36/53/43 41/58/44 40/57/45 39/56/46
s 8
f 42/59/47 45/62/48 44/61/49 43/60/50
f 43/63/50 44/66/49 47/65/51 46/64/52
f 46/67/52 47/70/51 49/69/53 48/68/54
s 9
f 50/71/55 53/74/56 52/73/57 51/72/58
s 10
f 54/75/59 57/78/60 56/77/61 55/76/62
s 6
f 58/79/63 59/82/64 37/81/41 38/80/40
f 60/83/65 61/86/66 59/85/64 58/84/63
f 62/87/67 63/90/68 61/89/66 60/88/65
s 10
f 55/91/62 56/77/61 65/93/69 64/92/70
s 8
f 41/94/71 48/96/54 49/95/53 54/75/72
s 7
f 39/97/46 40/100/45 67/99/73 66/98/74
s 9
f 35/52/75 51/102/58 52/73/57 68/101/76
